<?xml version="1.0" encoding="utf-8"?>
<!-- Generator: Adobe Illustrator 19.0.0, SVG Export Plug-In . SVG Version: 6.00 Build 0)  -->
<!DOCTYPE svg PUBLIC "-//W3C//DTD SVG 1.1//EN" "http://www.w3.org/Graphics/SVG/1.1/DTD/svg11.dtd">
<svg version="1.1" id="Layer_1" xmlns="http://www.w3.org/2000/svg" xmlns:xlink="http://www.w3.org/1999/xlink" x="0px" y="0px"
	 width="1250px" height="50px" viewBox="0 0 1250 50" style="enable-background:new 0 0 1250 50;" xml:space="preserve">
<style type="text/css">
	.st0{fill:#CCCCCC;}
	.st1{fill:#FFFFFF;}
	.st2{fill:#D1FF95;}
	.st3{fill:#00DD99;}
	.st4{fill:#B0EF98;}
	.st5{fill:#6CE998;}
	.st6{fill:none;stroke:#00DD99;stroke-linecap:round;stroke-linejoin:round;stroke-dasharray:0.1023,30.7013;}
	
		.st7{fill:none;stroke:#6CE998;stroke-width:1.5;stroke-linecap:round;stroke-linejoin:round;stroke-dasharray:9.878241e-02,29.6347;}
</style>
<g id="XMLID_155_">
	<circle id="XMLID_3_" class="st0" cx="25.4" cy="24.3" r="13.6"/>
	<g id="XMLID_62_">
		<path id="XMLID_63_" class="st1" d="M25.1,27.9c-0.6,0-1-0.4-1-1l-0.2-2.1c-0.1-0.7,0.3-1.1,0.9-1.2c2.3-0.2,3.5-1.1,3.5-2.6v0
			c0-1.4-1-2.3-2.8-2.3c-1.3,0-2.3,0.5-3.3,1.3c-0.2,0.2-0.6,0.3-0.9,0.3c-0.8,0-1.4-0.6-1.4-1.3c0-0.4,0.1-0.8,0.5-1
			c1.3-1.2,2.9-2,5.1-2c3.4,0,5.7,1.9,5.7,4.9v0c0,3.1-2.2,4.4-4.9,4.9l-0.1,1.1c-0.1,0.5-0.5,1-1,1H25.1z M25.1,29.6
			c1,0,1.7,0.7,1.7,1.7v0.2c0,0.9-0.7,1.7-1.7,1.7s-1.7-0.7-1.7-1.7v-0.2C23.4,30.4,24.1,29.6,25.1,29.6z"/>
	</g>
</g>
<g id="XMLID_126_">
	<circle id="XMLID_131_" class="st0" cx="75.4" cy="24.3" r="12.2"/>
	<g id="XMLID_127_">
		<path id="XMLID_128_" class="st1" d="M76,27.4c-0.5,0.1-0.9-0.1-1.1-0.6l-0.7-1.7c-0.2-0.5,0-1,0.5-1.3c1.9-0.7,2.8-1.8,2.4-3.1
			l0,0c-0.3-1.2-1.4-1.7-2.9-1.3c-1.1,0.3-1.9,0.9-2.5,1.9c-0.2,0.2-0.4,0.4-0.7,0.5c-0.6,0.2-1.3-0.2-1.5-0.8c-0.1-0.3,0-0.7,0.2-1
			c0.8-1.3,2-2.4,4-2.9c2.9-0.8,5.3,0.3,6,2.9l0,0c0.7,2.6-0.9,4.3-3.1,5.3l0.2,1c0,0.5-0.2,0.9-0.7,1.1L76,27.4z M76.4,28.9
			c0.9-0.2,1.6,0.2,1.9,1l0.1,0.2c0.2,0.8-0.2,1.6-1.1,1.8c-0.9,0.2-1.6-0.2-1.9-1l-0.1-0.2C75.1,30,75.5,29.2,76.4,28.9z"/>
	</g>
</g>
<g id="XMLID_132_">
	<circle id="XMLID_137_" class="st0" cx="125.4" cy="24.3" r="10.8"/>
	<g id="XMLID_133_">
		<path id="XMLID_134_" class="st1" d="M127.2,26.4c-0.3,0.3-0.8,0.3-1.1,0l-1.3-1c-0.4-0.3-0.5-0.8-0.1-1.2
			c1.2-1.4,1.4-2.6,0.5-3.4l0,0c-0.8-0.8-1.9-0.7-2.8,0.3c-0.7,0.7-1,1.6-1.1,2.6c0,0.2-0.1,0.5-0.3,0.7c-0.4,0.4-1.1,0.4-1.5,0
			c-0.2-0.2-0.3-0.5-0.3-0.9c0-1.4,0.5-2.8,1.7-4c1.9-1.9,4.2-2.1,5.9-0.4l0,0c1.7,1.7,1.2,3.7,0,5.5l0.6,0.7
			C127.6,25.6,127.6,26,127.2,26.4L127.2,26.4z M128.2,27.4c0.6-0.6,1.4-0.6,1.9,0l0.1,0.1c0.5,0.5,0.5,1.3,0,1.9
			c-0.6,0.6-1.4,0.6-1.9,0l-0.1-0.1C127.7,28.8,127.7,28,128.2,27.4z"/>
	</g>
</g>
<g id="XMLID_138_">
	<circle id="XMLID_143_" class="st0" cx="175.4" cy="24.3" r="9.4"/>
	<g id="XMLID_139_">
		<path id="XMLID_140_" class="st1" d="M177.8,24.4c0,0.4-0.3,0.7-0.7,0.7l-1.4,0.2c-0.5,0.1-0.8-0.2-0.8-0.7
			c-0.1-1.6-0.8-2.4-1.8-2.4h0c-0.9,0-1.6,0.7-1.6,1.9c0,0.9,0.3,1.6,0.9,2.3c0.1,0.2,0.2,0.4,0.2,0.6c0,0.5-0.4,0.9-0.9,0.9
			c-0.3,0-0.5-0.1-0.7-0.3c-0.8-0.9-1.4-2-1.4-3.5c0-2.3,1.3-3.9,3.4-3.9h0c2.1,0,3.1,1.5,3.4,3.4l0.8,0.1c0.4,0.1,0.7,0.3,0.7,0.7
			V24.4z M179.1,24.4c0-0.7,0.5-1.2,1.2-1.2h0.2c0.7,0,1.2,0.5,1.2,1.2s-0.5,1.2-1.2,1.2h-0.2C179.6,25.6,179.1,25.1,179.1,24.4z"/>
	</g>
</g>
<g id="XMLID_144_">
	<circle id="XMLID_149_" class="st0" cx="225.4" cy="24.3" r="7.9"/>
	<g id="XMLID_145_">
		<path id="XMLID_146_" class="st1" d="M226.5,22.5c0.3,0.2,0.4,0.5,0.2,0.8l-0.5,1.1c-0.1,0.4-0.5,0.5-0.8,0.3
			c-1.2-0.6-2.1-0.5-2.5,0.3l0,0c-0.4,0.7-0.1,1.5,0.7,2c0.6,0.4,1.3,0.4,2,0.3c0.2,0,0.4,0,0.6,0.1c0.4,0.2,0.5,0.7,0.3,1.1
			c-0.1,0.2-0.3,0.3-0.5,0.4c-1,0.2-2.1,0.2-3.2-0.5c-1.7-1-2.3-2.6-1.4-4.1l0,0c0.9-1.5,2.4-1.6,3.9-1l0.4-0.5
			C225.9,22.4,226.2,22.3,226.5,22.5L226.5,22.5z M227,21.6c-0.5-0.3-0.7-0.9-0.4-1.3l0.1-0.1c0.3-0.5,0.9-0.6,1.4-0.3
			c0.5,0.3,0.7,0.9,0.4,1.3l-0.1,0.1C228.1,21.8,227.5,21.9,227,21.6z"/>
	</g>
</g>
<g id="XMLID_150_">
	<circle id="XMLID_156_" class="st0" cx="275.4" cy="24.3" r="6.9"/>
	<g id="XMLID_151_">
		<path id="XMLID_152_" class="st1" d="M274.2,22.9c0.2-0.2,0.5-0.2,0.7,0l0.8,0.7c0.3,0.2,0.3,0.5,0.1,0.8
			c-0.7,0.9-0.9,1.6-0.3,2.2l0,0c0.5,0.5,1.2,0.4,1.8-0.2c0.5-0.5,0.7-1,0.7-1.6c0-0.2,0.1-0.3,0.2-0.4c0.3-0.3,0.7-0.3,1,0
			c0.1,0.1,0.2,0.3,0.2,0.5c0,0.9-0.3,1.7-1.1,2.5c-1.2,1.2-2.7,1.4-3.8,0.3l0,0c-1.1-1.1-0.8-2.4,0-3.5l-0.4-0.4
			C273.9,23.4,273.9,23.1,274.2,22.9L274.2,22.9z M273.5,22.3c-0.4,0.4-0.9,0.4-1.2,0l-0.1-0.1c-0.3-0.3-0.3-0.9,0-1.2
			c0.4-0.4,0.9-0.4,1.2,0l0.1,0.1C273.9,21.4,273.9,21.9,273.5,22.3z"/>
	</g>
</g>
<g id="XMLID_157_">
	<circle id="XMLID_162_" class="st0" cx="325.4" cy="24.3" r="5.1"/>
	<g id="XMLID_158_">
		<path id="XMLID_159_" class="st1" d="M324.4,25.1c-0.1-0.1-0.1-0.4,0-0.5l0.5-0.6c0.1-0.2,0.4-0.2,0.6-0.1
			c0.7,0.5,1.2,0.6,1.6,0.2l0,0c0.4-0.4,0.3-0.9-0.1-1.3c-0.3-0.3-0.7-0.5-1.2-0.5c-0.1,0-0.2-0.1-0.3-0.1c-0.2-0.2-0.2-0.5,0-0.7
			c0.1-0.1,0.2-0.2,0.4-0.1c0.7,0,1.3,0.2,1.9,0.8c0.9,0.9,1,2,0.2,2.8l0,0c-0.8,0.8-1.7,0.6-2.6,0l-0.3,0.3
			C324.8,25.3,324.5,25.3,324.4,25.1L324.4,25.1z M323.9,25.6c0.3,0.3,0.3,0.6,0,0.9l-0.1,0.1c-0.2,0.2-0.6,0.2-0.9,0
			c-0.3-0.3-0.3-0.6,0-0.9l0.1-0.1C323.2,25.4,323.6,25.4,323.9,25.6z"/>
	</g>
</g>
<circle id="XMLID_120_" class="st2" cx="525.9" cy="23.8" r="6.1"/>
<circle id="XMLID_100_" class="st2" cx="475.9" cy="23.8" r="4.7"/>
<circle id="XMLID_101_" class="st2" cx="425.9" cy="23.8" r="4"/>
<circle id="XMLID_121_" class="st2" cx="375.4" cy="23.8" r="3.1"/>
<g id="XMLID_407_">
	<circle id="XMLID_412_" class="st3" cx="1225.9" cy="24.3" r="13.6"/>
	<g id="XMLID_408_">
		<path id="XMLID_409_" class="st1" d="M1225.6,27.9c-0.6,0-1-0.4-1-1l-0.2-2.1c-0.1-0.7,0.3-1.1,0.9-1.2c2.3-0.2,3.5-1.1,3.5-2.6v0
			c0-1.4-1-2.3-2.8-2.3c-1.3,0-2.3,0.5-3.3,1.3c-0.2,0.2-0.6,0.3-0.9,0.3c-0.8,0-1.4-0.6-1.4-1.3c0-0.4,0.1-0.8,0.5-1
			c1.3-1.2,2.9-2,5.1-2c3.4,0,5.7,1.9,5.7,4.9v0c0,3.1-2.2,4.4-4.9,4.9l-0.1,1.1c-0.1,0.5-0.5,1-1,1H1225.6z M1225.6,29.6
			c1,0,1.7,0.7,1.7,1.7v0.2c0,0.9-0.7,1.7-1.7,1.7s-1.7-0.7-1.7-1.7v-0.2C1223.9,30.4,1224.6,29.6,1225.6,29.6z"/>
	</g>
</g>
<circle id="XMLID_400_" class="st4" cx="725.9" cy="24.3" r="13.6"/>
<g id="XMLID_396_">
	<path id="XMLID_397_" class="st1" d="M725.6,27.9c-0.6,0-1-0.4-1-1l-0.2-2.1c-0.1-0.7,0.3-1.1,0.9-1.2c2.3-0.2,3.5-1.1,3.5-2.6v0
		c0-1.4-1-2.3-2.8-2.3c-1.3,0-2.3,0.5-3.3,1.3c-0.2,0.2-0.6,0.3-0.9,0.3c-0.8,0-1.4-0.6-1.4-1.3c0-0.4,0.1-0.8,0.5-1
		c1.3-1.2,2.9-2,5.1-2c3.4,0,5.7,1.9,5.7,4.9v0c0,3.1-2.2,4.4-4.9,4.9l-0.1,1.1c-0.1,0.5-0.5,1-1,1H725.6z M725.6,29.6
		c1,0,1.7,0.7,1.7,1.7v0.2c0,0.9-0.7,1.7-1.7,1.7s-1.7-0.7-1.7-1.7v-0.2C723.9,30.4,724.6,29.6,725.6,29.6z"/>
</g>
<circle id="XMLID_388_" class="st5" cx="775.9" cy="24.3" r="14.6"/>
<g id="XMLID_384_">
	<path id="XMLID_385_" class="st1" d="M775.6,28.1c-0.6,0-1-0.4-1.1-1l-0.3-2.2c-0.1-0.7,0.3-1.2,1-1.3c2.4-0.2,3.8-1.2,3.8-2.8
		v-0.1c0-1.5-1.1-2.5-3-2.5c-1.4,0-2.5,0.5-3.5,1.4c-0.3,0.2-0.6,0.4-1,0.4c-0.8,0-1.5-0.6-1.5-1.4c0-0.4,0.2-0.8,0.5-1.1
		c1.4-1.3,3.1-2.2,5.5-2.2c3.6,0,6.1,2,6.1,5.3v0.1c0,3.3-2.4,4.8-5.2,5.2l-0.1,1.2c-0.1,0.6-0.5,1-1.1,1H775.6z M775.6,30
		c1.1,0,1.8,0.8,1.8,1.8v0.3c0,1-0.8,1.8-1.8,1.8c-1.1,0-1.8-0.8-1.8-1.8v-0.3C773.8,30.8,774.5,30,775.6,30z"/>
</g>
<circle id="XMLID_376_" class="st5" cx="825.9" cy="24.3" r="16.6"/>
<g id="XMLID_372_">
	<path id="XMLID_373_" class="st1" d="M825.6,28.6c-0.7,0-1.2-0.5-1.3-1.2l-0.3-2.5c-0.1-0.8,0.4-1.4,1.2-1.5
		c2.8-0.3,4.3-1.3,4.3-3.2v-0.1c0-1.7-1.3-2.8-3.4-2.8c-1.6,0-2.8,0.6-4,1.6c-0.3,0.2-0.7,0.4-1.1,0.4c-0.9,0-1.7-0.7-1.7-1.6
		c0-0.4,0.2-0.9,0.6-1.3c1.6-1.5,3.5-2.4,6.3-2.4c4.1,0,6.9,2.3,6.9,6v0.1c0,3.7-2.7,5.4-6,6l-0.1,1.4c-0.1,0.6-0.6,1.2-1.3,1.2
		H825.6z M825.6,30.8c1.2,0,2.1,0.9,2.1,2v0.3c0,1.2-0.9,2-2.1,2s-2.1-0.9-2.1-2v-0.3C823.5,31.7,824.4,30.8,825.6,30.8z"/>
</g>
<g id="XMLID_365_">
	<circle id="XMLID_370_" class="st3" cx="1025.9" cy="24.3" r="16.5"/>
	<g id="XMLID_366_">
		<path id="XMLID_367_" class="st1" d="M1025.6,28.6c-0.7,0-1.2-0.5-1.3-1.2l-0.3-2.5c-0.1-0.8,0.4-1.4,1.1-1.5
			c2.8-0.3,4.3-1.3,4.3-3.2v-0.1c0-1.6-1.3-2.8-3.4-2.8c-1.6,0-2.8,0.6-4,1.6c-0.3,0.2-0.7,0.4-1.1,0.4c-0.9,0-1.6-0.7-1.6-1.6
			c0-0.4,0.2-0.9,0.6-1.3c1.6-1.5,3.5-2.4,6.2-2.4c4.1,0,6.9,2.3,6.9,6v0.1c0,3.7-2.7,5.4-5.9,5.9l-0.1,1.3
			c-0.1,0.6-0.6,1.2-1.3,1.2H1025.6z M1025.6,30.8c1.2,0,2.1,0.9,2.1,2v0.3c0,1.1-0.9,2-2.1,2c-1.2,0-2.1-0.9-2.1-2v-0.3
			C1023.5,31.6,1024.4,30.8,1025.6,30.8z"/>
	</g>
</g>
<g id="XMLID_359_">
	<circle id="XMLID_364_" class="st3" cx="875.9" cy="24.3" r="18"/>
	<g id="XMLID_360_">
		<path id="XMLID_361_" class="st1" d="M875.5,29c-0.7,0-1.3-0.5-1.4-1.3l-0.3-2.7c-0.1-0.9,0.4-1.5,1.2-1.6c3-0.3,4.7-1.4,4.7-3.4
			v-0.1c0-1.8-1.4-3-3.7-3c-1.7,0-3.1,0.6-4.3,1.8c-0.3,0.3-0.7,0.4-1.2,0.4c-1,0-1.8-0.8-1.8-1.8c0-0.5,0.2-1,0.6-1.4
			c1.7-1.6,3.8-2.6,6.8-2.6c4.5,0,7.5,2.5,7.5,6.5v0.1c0,4-2.9,5.8-6.4,6.4l-0.1,1.5c-0.1,0.7-0.6,1.3-1.4,1.3H875.5z M875.5,31.3
			c1.3,0,2.3,1,2.3,2.2v0.3c0,1.2-1,2.2-2.3,2.2s-2.3-1-2.3-2.2v-0.3C873.3,32.3,874.2,31.3,875.5,31.3z"/>
	</g>
</g>
<g id="XMLID_353_">
	<circle id="XMLID_358_" class="st3" cx="1175.9" cy="24.3" r="12"/>
	<g id="XMLID_354_">
		<path id="XMLID_355_" class="st1" d="M1175.6,27.4c-0.5,0-0.9-0.4-0.9-0.9l-0.2-1.8c-0.1-0.6,0.3-1,0.8-1.1c2-0.2,3.1-1,3.1-2.3v0
			c0-1.2-0.9-2-2.5-2c-1.1,0-2,0.4-2.9,1.2c-0.2,0.2-0.5,0.3-0.8,0.3c-0.7,0-1.2-0.5-1.2-1.2c0-0.3,0.1-0.7,0.4-0.9
			c1.1-1.1,2.6-1.8,4.5-1.8c3,0,5,1.7,5,4.3v0c0,2.7-1.9,3.9-4.3,4.3l-0.1,1c-0.1,0.5-0.4,0.9-0.9,0.9H1175.6z M1175.6,29
			c0.9,0,1.5,0.6,1.5,1.5v0.2c0,0.8-0.6,1.5-1.5,1.5s-1.5-0.6-1.5-1.5v-0.2C1174.1,29.6,1174.8,29,1175.6,29z"/>
	</g>
</g>
<g id="XMLID_347_">
	<circle id="XMLID_352_" class="st3" cx="1075.9" cy="24.3" r="12"/>
	<g id="XMLID_348_">
		<path id="XMLID_349_" class="st1" d="M1075.6,27.4c-0.5,0-0.9-0.4-0.9-0.9l-0.2-1.8c-0.1-0.6,0.3-1,0.8-1.1c2-0.2,3.1-1,3.1-2.3v0
			c0-1.2-0.9-2-2.5-2c-1.1,0-2,0.4-2.9,1.2c-0.2,0.2-0.5,0.3-0.8,0.3c-0.7,0-1.2-0.5-1.2-1.2c0-0.3,0.1-0.7,0.4-0.9
			c1.1-1.1,2.6-1.8,4.5-1.8c3,0,5,1.7,5,4.3v0c0,2.7-1.9,3.9-4.3,4.3l-0.1,1c-0.1,0.5-0.4,0.9-0.9,0.9H1075.6z M1075.6,29
			c0.9,0,1.5,0.6,1.5,1.5v0.2c0,0.8-0.6,1.5-1.5,1.5s-1.5-0.6-1.5-1.5v-0.2C1074.1,29.6,1074.8,29,1075.6,29z"/>
	</g>
</g>
<g id="XMLID_341_">
	<circle id="XMLID_346_" class="st3" cx="1125.9" cy="24.3" r="8.2"/>
	<g id="XMLID_342_">
		<path id="XMLID_343_" class="st1" d="M1125.7,26.4c-0.3,0-0.6-0.2-0.6-0.6l-0.1-1.3c-0.1-0.4,0.2-0.7,0.6-0.7
			c1.4-0.1,2.1-0.7,2.1-1.6v0c0-0.8-0.6-1.4-1.7-1.4c-0.8,0-1.4,0.3-2,0.8c-0.1,0.1-0.3,0.2-0.5,0.2c-0.5,0-0.8-0.4-0.8-0.8
			c0-0.2,0.1-0.5,0.3-0.6c0.8-0.7,1.7-1.2,3.1-1.2c2,0,3.4,1.1,3.4,3v0c0,1.8-1.3,2.7-2.9,2.9l-0.1,0.7
			C1126.4,26.2,1126.1,26.4,1125.7,26.4L1125.7,26.4z M1125.7,27.5c0.6,0,1,0.4,1,1v0.1c0,0.6-0.4,1-1,1s-1-0.4-1-1v-0.1
			C1124.7,27.9,1125.1,27.5,1125.7,27.5z"/>
	</g>
</g>
<g id="XMLID_335_">
	<circle id="XMLID_340_" class="st3" cx="975.9" cy="24.3" r="20.5"/>
	<g id="XMLID_336_">
		<path id="XMLID_337_" class="st1" d="M975.5,29.7c-0.8,0-1.5-0.6-1.6-1.5l-0.4-3.1c-0.1-1,0.4-1.7,1.4-1.8
			c3.4-0.3,5.3-1.6,5.3-3.9v-0.1c0-2-1.6-3.5-4.2-3.5c-1.9,0-3.5,0.7-4.9,2c-0.4,0.3-0.8,0.5-1.3,0.5c-1.1,0-2-0.9-2-2
			c0-0.5,0.2-1.1,0.7-1.6c1.9-1.8,4.4-3,7.7-3c5.1,0,8.6,2.8,8.6,7.4v0.1c0,4.6-3.3,6.7-7.4,7.4l-0.1,1.7c-0.1,0.8-0.7,1.5-1.6,1.5
			H975.5z M975.5,32.3c1.5,0,2.6,1.1,2.6,2.5v0.4c0,1.4-1.1,2.5-2.6,2.5c-1.5,0-2.6-1.1-2.6-2.5v-0.4
			C972.9,33.4,974,32.3,975.5,32.3z"/>
	</g>
</g>
<g id="XMLID_329_">
	<circle id="XMLID_334_" class="st3" cx="925.9" cy="24.3" r="19.1"/>
	<g id="XMLID_330_">
		<path id="XMLID_331_" class="st1" d="M925.5,29.3c-0.8,0-1.4-0.6-1.5-1.4l-0.3-2.9c-0.1-0.9,0.4-1.6,1.3-1.7c3.2-0.3,5-1.5,5-3.7
			v-0.1c0-1.9-1.5-3.2-3.9-3.2c-1.8,0-3.3,0.6-4.6,1.9c-0.3,0.3-0.8,0.5-1.3,0.5c-1.1,0-1.9-0.8-1.9-1.9c0-0.5,0.2-1.1,0.7-1.5
			c1.8-1.7,4.1-2.8,7.2-2.8c4.8,0,8,2.7,8,6.9v0.1c0,4.3-3.1,6.2-6.9,6.9l-0.1,1.6c-0.1,0.7-0.7,1.4-1.5,1.4H925.5z M925.5,31.8
			c1.4,0,2.4,1,2.4,2.3v0.3c0,1.3-1,2.3-2.4,2.3s-2.4-1-2.4-2.3v-0.3C923.1,32.8,924.1,31.8,925.5,31.8z"/>
	</g>
</g>
<g id="XMLID_326_">
	<circle id="XMLID_240_" class="st6" cx="975.9" cy="24.5" r="24.5"/>
</g>
<g id="XMLID_95_">
	<circle id="XMLID_242_" class="st7" cx="925.9" cy="24.5" r="23.7"/>
</g>
<circle id="XMLID_322_" class="st5" cx="819.7" cy="4.1" r="1"/>
<circle id="XMLID_321_" class="st5" cx="808.7" cy="12.1" r="1"/>
<circle id="XMLID_320_" class="st5" cx="804.7" cy="24.6" r="1"/>
<circle id="XMLID_319_" class="st5" cx="808.7" cy="37.1" r="1"/>
<circle id="XMLID_318_" class="st5" cx="819.7" cy="44.6" r="1"/>
<circle id="XMLID_317_" class="st5" cx="832.7" cy="44.6" r="1"/>
<circle id="XMLID_316_" class="st5" cx="843.2" cy="37.1" r="1"/>
<circle id="XMLID_315_" class="st5" cx="847.2" cy="24.6" r="1"/>
<circle id="XMLID_314_" class="st5" cx="843.2" cy="12.1" r="1"/>
<circle id="XMLID_313_" class="st5" cx="832.7" cy="4.1" r="1"/>
<circle id="XMLID_107_" class="st5" cx="869.8" cy="3" r="0.8"/>
<circle id="XMLID_106_" class="st5" cx="858.2" cy="11.5" r="0.8"/>
<circle id="XMLID_105_" class="st5" cx="854" cy="24.6" r="0.8"/>
<circle id="XMLID_102_" class="st5" cx="858.2" cy="37.8" r="0.8"/>
<circle id="XMLID_99_" class="st5" cx="869.8" cy="45.7" r="0.8"/>
<circle id="XMLID_98_" class="st5" cx="883.5" cy="45.7" r="0.8"/>
<circle id="XMLID_97_" class="st5" cx="894.6" cy="37.8" r="0.8"/>
<circle id="XMLID_96_" class="st5" cx="898.8" cy="24.6" r="0.8"/>
<circle id="XMLID_94_" class="st5" cx="894.6" cy="11.5" r="0.8"/>
<circle id="XMLID_73_" class="st5" cx="883.5" cy="3" r="0.8"/>
<circle id="XMLID_312_" class="st5" cx="770.3" cy="7.8" r="1"/>
<circle id="XMLID_311_" class="st5" cx="761.3" cy="14.4" r="1"/>
<circle id="XMLID_310_" class="st5" cx="758.5" cy="24.6" r="1"/>
<circle id="XMLID_309_" class="st5" cx="761.3" cy="34.8" r="1"/>
<circle id="XMLID_308_" class="st5" cx="770.3" cy="40.9" r="1"/>
<circle id="XMLID_307_" class="st5" cx="780.9" cy="40.9" r="1"/>
<circle id="XMLID_306_" class="st5" cx="789.5" cy="34.8" r="1"/>
<circle id="XMLID_305_" class="st5" cx="792.8" cy="24.6" r="1"/>
<circle id="XMLID_304_" class="st5" cx="789.5" cy="14.4" r="1"/>
<circle id="XMLID_303_" class="st5" cx="780.9" cy="7.8" r="1"/>
<circle id="XMLID_302_" class="st4" cx="720.9" cy="9.7" r="1.5"/>
<circle id="XMLID_301_" class="st4" cx="712.9" cy="15.5" r="1.5"/>
<circle id="XMLID_300_" class="st4" cx="710.4" cy="24.6" r="1.5"/>
<circle id="XMLID_299_" class="st4" cx="712.9" cy="33.6" r="1.5"/>
<circle id="XMLID_298_" class="st4" cx="720.9" cy="39.1" r="1.5"/>
<circle id="XMLID_297_" class="st4" cx="730.3" cy="39.1" r="1.5"/>
<circle id="XMLID_296_" class="st4" cx="738" cy="33.6" r="1.5"/>
<circle id="XMLID_295_" class="st4" cx="740.9" cy="24.6" r="1.5"/>
<circle id="XMLID_294_" class="st4" cx="738" cy="15.5" r="1.5"/>
<circle id="XMLID_293_" class="st4" cx="730.3" cy="9.7" r="1.5"/>
<circle id="XMLID_292_" class="st4" cx="675.8" cy="24.3" r="10"/>
<path id="XMLID_289_" class="st1" d="M675.6,26.9c-0.4,0-0.7-0.3-0.8-0.7l-0.2-1.5c-0.1-0.5,0.2-0.8,0.7-0.9
	c1.7-0.2,2.6-0.8,2.6-1.9v0c0-1-0.8-1.7-2.1-1.7c-0.9,0-1.7,0.3-2.4,1c-0.2,0.1-0.4,0.2-0.7,0.2c-0.6,0-1-0.4-1-1
	c0-0.3,0.1-0.6,0.4-0.8c0.9-0.9,2.1-1.5,3.8-1.5c2.5,0,4.2,1.4,4.2,3.6v0c0,2.2-1.6,3.3-3.6,3.6l-0.1,0.8c-0.1,0.4-0.4,0.7-0.8,0.7
	H675.6z M675.6,28.2c0.7,0,1.3,0.5,1.3,1.2v0.2c0,0.7-0.5,1.2-1.3,1.2s-1.3-0.5-1.3-1.2v-0.2C674.4,28.8,674.9,28.2,675.6,28.2z"/>
<circle id="XMLID_286_" class="st4" cx="672.2" cy="13.5" r="2"/>
<circle id="XMLID_285_" class="st4" cx="666.3" cy="17.8" r="2"/>
<circle id="XMLID_284_" class="st4" cx="664.4" cy="24.5" r="2"/>
<circle id="XMLID_283_" class="st4" cx="666.3" cy="31.2" r="2"/>
<circle id="XMLID_282_" class="st4" cx="672.2" cy="35.2" r="2"/>
<circle id="XMLID_281_" class="st4" cx="679.1" cy="35.2" r="2"/>
<circle id="XMLID_280_" class="st4" cx="684.7" cy="31.2" r="2"/>
<circle id="XMLID_279_" class="st4" cx="686.9" cy="24.5" r="2"/>
<circle id="XMLID_278_" class="st4" cx="684.7" cy="17.8" r="2"/>
<circle id="XMLID_277_" class="st4" cx="679.1" cy="13.5" r="2"/>
<circle id="XMLID_276_" class="st2" cx="625.8" cy="24.3" r="6.9"/>
<g id="XMLID_272_">
	<path id="XMLID_273_" class="st1" d="M625.6,26.1c-0.3,0-0.5-0.2-0.5-0.5l-0.1-1.1c0-0.3,0.1-0.6,0.5-0.6c1.2-0.1,1.8-0.6,1.8-1.3
		v0c0-0.7-0.5-1.2-1.4-1.2c-0.6,0-1.2,0.2-1.7,0.7c-0.1,0.1-0.3,0.2-0.5,0.2c-0.4,0-0.7-0.3-0.7-0.7c0-0.2,0.1-0.4,0.2-0.5
		c0.6-0.6,1.5-1,2.6-1c1.7,0,2.9,1,2.9,2.5v0c0,1.5-1.1,2.2-2.5,2.5l0,0.6C626.2,25.9,626,26.1,625.6,26.1L625.6,26.1z M625.6,27
		c0.5,0,0.9,0.4,0.9,0.8V28c0,0.5-0.4,0.8-0.9,0.8c-0.5,0-0.9-0.4-0.9-0.8v-0.1C624.8,27.4,625.1,27,625.6,27z"/>
</g>
<circle id="XMLID_270_" class="st2" cx="623.3" cy="16.9" r="2.5"/>
<circle id="XMLID_269_" class="st2" cx="619.2" cy="19.9" r="2.5"/>
<circle id="XMLID_268_" class="st2" cx="618" cy="24.5" r="2.5"/>
<circle id="XMLID_267_" class="st2" cx="619.2" cy="29.1" r="2.5"/>
<circle id="XMLID_266_" class="st2" cx="623.3" cy="31.8" r="2.5"/>
<circle id="XMLID_265_" class="st2" cx="628" cy="31.8" r="2.5"/>
<circle id="XMLID_264_" class="st2" cx="631.9" cy="29.1" r="2.5"/>
<circle id="XMLID_263_" class="st2" cx="633.4" cy="24.5" r="2.5"/>
<circle id="XMLID_262_" class="st2" cx="631.9" cy="19.9" r="2.5"/>
<circle id="XMLID_261_" class="st2" cx="628" cy="16.9" r="2.5"/>
<circle id="XMLID_260_" class="st2" cx="575.7" cy="24.3" r="4.2"/>
<circle id="XMLID_259_" class="st2" cx="574.2" cy="19.8" r="1.5"/>
<circle id="XMLID_258_" class="st2" cx="571.7" cy="21.6" r="1.5"/>
<circle id="XMLID_257_" class="st2" cx="571" cy="24.4" r="1.5"/>
<circle id="XMLID_256_" class="st2" cx="571.7" cy="27.2" r="1.5"/>
<circle id="XMLID_255_" class="st2" cx="574.2" cy="28.9" r="1.5"/>
<circle id="XMLID_254_" class="st2" cx="577.1" cy="28.9" r="1.5"/>
<circle id="XMLID_253_" class="st2" cx="579.5" cy="27.2" r="1.5"/>
<circle id="XMLID_252_" class="st2" cx="580.4" cy="24.4" r="1.5"/>
<circle id="XMLID_251_" class="st2" cx="579.5" cy="21.6" r="1.5"/>
<circle id="XMLID_250_" class="st2" cx="577.1" cy="19.8" r="1.5"/>
</svg>
