<?xml version="1.0" encoding="utf-8"?>
<!-- Generator: Adobe Illustrator 19.0.0, SVG Export Plug-In . SVG Version: 6.00 Build 0)  -->
<!DOCTYPE svg PUBLIC "-//W3C//DTD SVG 1.1//EN" "http://www.w3.org/Graphics/SVG/1.1/DTD/svg11.dtd">
<svg version="1.1" id="Layer_1" xmlns="http://www.w3.org/2000/svg" xmlns:xlink="http://www.w3.org/1999/xlink" x="0px" y="0px"
	 width="1000px" height="189.7px" viewBox="0 0 1000 189.7" style="enable-background:new 0 0 1000 189.7;" xml:space="preserve">
<style type="text/css">
	.st0{fill:none;stroke:#333333;stroke-width:14;stroke-miterlimit:10;}
	.st1{fill:none;stroke:#00BBDD;stroke-width:14;stroke-miterlimit:10;}
	.st2{fill:none;stroke:#333333;stroke-width:6;stroke-linecap:round;stroke-linejoin:round;stroke-miterlimit:10;}
	.st3{fill:#333333;}
	.st4{opacity:0.2;fill:#FF99CC;}
	.st5{fill:#FF99CC;}
	.st6{fill:#FF5588;}
	.st7{opacity:0.7;fill:#FF99CC;}
	.st8{opacity:0.4;fill:#FF99CC;}
</style>
<path class="st0" d="M38.9,41.3C21.2,55.5,21,156.4,34.7,169.7c13.7,13.2,112.4,18.7,128.8,5C180,161,164.9,58.2,146.2,41.3
	C130.6,27.3,67.2,18.5,38.9,41.3z"/>
<path class="st1" d="M110.1,11.2c-7.9,7.4-1.8,48.4,6.9,54.8c8.7,6.4,45.1,5,53.6-2.3c8.5-7.3,3.5-48.4-4.8-52.5
	C157.6,7.1,117.4,4.3,110.1,11.2z"/>
<path class="st2" d="M89.6,110.3c0,0,5.5-15.5,14.2-2.7"/>
<circle class="st3" cx="62.4" cy="90.8" r="9.8"/>
<ellipse class="st4" cx="52.1" cy="120.1" rx="14.2" ry="11.7"/>
<ellipse class="st4" cx="143.2" cy="120.1" rx="14.2" ry="11.7"/>
<circle class="st3" cx="129.1" cy="90.8" r="9.8"/>
<path class="st2" d="M93.4,138.1c0,0,17.5,18.6,25.8-3.7"/>
<path class="st0" d="M238.9,41.3c-17.6,14.2-17.8,115.1-4.1,128.4c13.7,13.2,112.4,18.7,128.8,5C380,161,364.9,58.2,346.2,41.3
	C330.6,27.3,267.2,18.5,238.9,41.3z"/>
<path class="st1" d="M310.1,11.2c-7.9,7.4-1.8,48.4,6.9,54.8c8.7,6.4,45.1,5,53.6-2.3s3.5-48.4-4.8-52.5S317.4,4.3,310.1,11.2z"/>
<path class="st2" d="M289.6,110.3c0,0,5.5-15.5,14.2-2.7"/>
<ellipse class="st4" cx="252.1" cy="120.1" rx="14.2" ry="11.7"/>
<ellipse class="st4" cx="343.2" cy="120.1" rx="14.2" ry="11.7"/>
<path class="st2" d="M293.4,138.1c0,0,17.5,18.6,25.8-3.7"/>
<path class="st2" d="M319.3,92.4c0,0,11.7,10.5,18.9,0.1"/>
<path class="st2" d="M271,92.4c0,0-11.7,10.5-18.9,0.1"/>
<path class="st0" d="M838.9,41.3c-17.6,14.2-17.8,115.1-4.1,128.4c13.7,13.2,112.4,18.7,128.8,5C980,161,964.9,58.2,946.2,41.3
	C930.6,27.3,867.2,18.5,838.9,41.3z"/>
<path class="st1" d="M910.1,11.2c-7.9,7.4-1.8,48.4,6.9,54.8c8.7,6.4,45.1,5,53.6-2.3s3.5-48.4-4.8-52.5S917.4,4.3,910.1,11.2z"/>
<path class="st2" d="M889.6,110.3c0,0,5.5-15.5,14.2-2.7"/>
<ellipse class="st5" cx="852.1" cy="120.1" rx="14.2" ry="11.7"/>
<ellipse class="st5" cx="943.2" cy="120.1" rx="14.2" ry="11.7"/>
<path class="st2" d="M891.7,126.3c0,0-3.5,30.2,5,36.7c12.6,9.8,35.3,3.1,20.8-40.5L891.7,126.3z"/>
<g>
	<g>
		<path class="st6" d="M929.1,84.6c1.3-4.2,4.6-6.2,8.2-6.2c4.4,0,7.7,3.7,7.7,8.1c0,5.3-2.9,9.3-5.9,12.9c-2.9,3.5-8.6,9.5-10.1,11
			H929c-1.5-1.5-7.2-7.5-10-11c-3-3.6-5.9-7.6-5.9-12.9c0-4.5,3.5-8.1,7.8-8.1C924.5,78.4,927.7,80.4,929.1,84.6L929.1,84.6z"/>
	</g>
</g>
<g>
	<g>
		<path class="st6" d="M862.4,84.6c1.3-4.2,4.6-6.2,8.2-6.2c4.4,0,7.7,3.7,7.7,8.1c0,5.3-2.9,9.3-5.9,12.9c-2.9,3.5-8.6,9.5-10.1,11
			h-0.1c-1.5-1.5-7.2-7.5-10-11c-3-3.6-5.9-7.6-5.9-12.9c0-4.5,3.5-8.1,7.8-8.1C857.8,78.4,861,80.4,862.4,84.6L862.4,84.6z"/>
	</g>
</g>
<path class="st0" d="M638.9,41.3c-17.6,14.2-17.8,115.1-4.1,128.4c13.7,13.2,112.4,18.7,128.8,5C780,161,764.9,58.2,746.2,41.3
	C730.6,27.3,667.2,18.5,638.9,41.3z"/>
<path class="st1" d="M710.1,11.2c-7.9,7.4-1.8,48.4,6.9,54.8c8.7,6.4,45.1,5,53.6-2.3s3.5-48.4-4.8-52.5S717.4,4.3,710.1,11.2z"/>
<path class="st2" d="M689.6,110.3c0,0,5.5-15.5,14.2-2.7"/>
<ellipse class="st7" cx="652.1" cy="120.1" rx="14.2" ry="11.7"/>
<ellipse class="st7" cx="743.2" cy="120.1" rx="14.2" ry="11.7"/>
<path class="st2" d="M691.7,130.3c0,0-2.3,18.4,6.1,24.9c12.6,9.8,28.7,0.5,19.7-28.7L691.7,130.3z"/>
<g>
	<g>
		<path class="st6" d="M729.1,87.5c0.9-3,3.2-4.4,5.8-4.4c3.1,0,5.4,2.6,5.4,5.7c0,3.7-2,6.5-4.1,9.1c-2,2.4-6,6.7-7.1,7.7H729
			c-1-1-5-5.3-7-7.7c-2.1-2.5-4.1-5.3-4.1-9.1c0-3.2,2.4-5.7,5.4-5.7C725.8,83.1,728.1,84.5,729.1,87.5L729.1,87.5z"/>
	</g>
</g>
<g>
	<g>
		<path class="st6" d="M662.4,87.5c0.9-3,3.2-4.4,5.8-4.4c3.1,0,5.4,2.6,5.4,5.7c0,3.7-2,6.5-4.1,9.1c-2,2.4-6,6.7-7.1,7.7h-0.1
			c-1-1-5-5.3-7-7.7c-2.1-2.5-4.1-5.3-4.1-9.1c0-3.2,2.4-5.7,5.4-5.7C659.2,83.1,661.4,84.5,662.4,87.5L662.4,87.5z"/>
	</g>
</g>
<path class="st0" d="M438.9,41.3c-17.6,14.2-17.8,115.1-4.1,128.4c13.7,13.2,112.4,18.7,128.8,5C580,161,564.9,58.2,546.2,41.3
	C530.6,27.3,467.2,18.5,438.9,41.3z"/>
<path class="st1" d="M510.1,11.2c-7.9,7.4-1.8,48.4,6.9,54.8c8.7,6.4,45.1,5,53.6-2.3s3.5-48.4-4.8-52.5S517.4,4.3,510.1,11.2z"/>
<path class="st2" d="M489.6,110.3c0,0,5.5-15.5,14.2-2.7"/>
<ellipse class="st8" cx="452.1" cy="120.1" rx="14.2" ry="11.7"/>
<ellipse class="st8" cx="543.2" cy="120.1" rx="14.2" ry="11.7"/>
<path class="st2" d="M491.7,133.3c0,0-3.5,5.5,5,12.1c12.6,9.8,23.5-1.9,20.8-15.8L491.7,133.3z"/>
<g>
	<g>
		<path class="st6" d="M529.1,89.9c0.6-1.9,2.1-2.8,3.7-2.8c2,0,3.5,1.7,3.5,3.7c0,2.4-1.3,4.2-2.7,5.8c-1.3,1.6-3.9,4.3-4.6,5h0
			c-0.7-0.7-3.2-3.4-4.5-5c-1.4-1.6-2.7-3.4-2.7-5.8c0-2,1.6-3.7,3.5-3.7C527,87.1,528.5,88,529.1,89.9L529.1,89.9z"/>
	</g>
</g>
<g>
	<g>
		<path class="st6" d="M462.4,89.9c0.6-1.9,2.1-2.8,3.7-2.8c2,0,3.5,1.7,3.5,3.7c0,2.4-1.3,4.2-2.7,5.8c-1.3,1.6-3.9,4.3-4.6,5h0
			c-0.7-0.7-3.2-3.4-4.5-5c-1.4-1.6-2.7-3.4-2.7-5.8c0-2,1.6-3.7,3.5-3.7C460.3,87.1,461.8,88,462.4,89.9L462.4,89.9z"/>
	</g>
</g>
</svg>
